<svg xmlns="http://www.w3.org/2000/svg" width="700" height="380">
<rect width="100%" height="100%" fill="#ffffff"/>
<text x="50" y="38" font-size="14" font-family="sans-serif">Thrust vs time (amp=0.00, delta=0.660)</text>
<line x1="50.0" y1="330.0" x2="650.0" y2="330.0" stroke="#333" stroke-width="1"/>
<line x1="50.0" y1="50.0" x2="50.0" y2="330.0" stroke="#333" stroke-width="1"/>
<line x1="50.0" y1="330.0" x2="50.0" y2="335.0" stroke="#333" stroke-width="1"/>
<text x="50.0" y="348.0" font-size="10" font-family="sans-serif" text-anchor="middle">0</text>
<line x1="200.0" y1="330.0" x2="200.0" y2="335.0" stroke="#333" stroke-width="1"/>
<text x="200.0" y="348.0" font-size="10" font-family="sans-serif" text-anchor="middle">1.249</text>
<line x1="350.0" y1="330.0" x2="350.0" y2="335.0" stroke="#333" stroke-width="1"/>
<text x="350.0" y="348.0" font-size="10" font-family="sans-serif" text-anchor="middle">2.498</text>
<line x1="500.0" y1="330.0" x2="500.0" y2="335.0" stroke="#333" stroke-width="1"/>
<text x="500.0" y="348.0" font-size="10" font-family="sans-serif" text-anchor="middle">3.747</text>
<line x1="650.0" y1="330.0" x2="650.0" y2="335.0" stroke="#333" stroke-width="1"/>
<text x="650.0" y="348.0" font-size="10" font-family="sans-serif" text-anchor="middle">4.996</text>
<line x1="45.0" y1="330.0" x2="50.0" y2="330.0" stroke="#333" stroke-width="1"/>
<text x="43.0" y="333.0" font-size="10" font-family="sans-serif" text-anchor="end">-2.081</text>
<line x1="45.0" y1="260.0" x2="50.0" y2="260.0" stroke="#333" stroke-width="1"/>
<text x="43.0" y="263.0" font-size="10" font-family="sans-serif" text-anchor="end">0.2538</text>
<line x1="45.0" y1="190.0" x2="50.0" y2="190.0" stroke="#333" stroke-width="1"/>
<text x="43.0" y="193.0" font-size="10" font-family="sans-serif" text-anchor="end">2.589</text>
<line x1="45.0" y1="120.0" x2="50.0" y2="120.0" stroke="#333" stroke-width="1"/>
<text x="43.0" y="123.0" font-size="10" font-family="sans-serif" text-anchor="end">4.924</text>
<line x1="45.0" y1="50.0" x2="50.0" y2="50.0" stroke="#333" stroke-width="1"/>
<text x="43.0" y="53.0" font-size="10" font-family="sans-serif" text-anchor="end">7.259</text>
<polyline points="50.0,313.1 50.5,315.3 51.0,317.1 51.5,318.3 52.0,319.0 52.5,319.2 53.0,318.9 53.5,318.1 54.0,316.9 54.5,315.3 55.0,313.3 55.5,311.0 56.0,308.5 56.5,305.7 57.0,302.7 57.5,299.6 58.0,296.5 58.5,293.4 59.0,290.4 59.5,287.6 60.0,284.9 60.5,282.4 61.0,280.2 61.5,278.4 62.0,276.9 62.5,275.8 63.0,275.0 63.5,274.7 64.0,274.8 64.5,275.2 65.0,276.0 65.5,277.1 66.0,278.4 66.5,280.0 67.0,281.7 67.5,283.5 68.0,285.3 68.5,287.1 69.0,288.7 69.5,290.2 70.0,291.4 70.5,292.3 71.0,263.5 71.5,264.1 72.0,259.5 72.5,249.1 73.0,232.4 73.5,209.7 74.0,139.6 74.5,109.3 75.0,81.4 75.5,60.4 76.0,50.4 76.5,54.1 77.0,72.6 77.5,104.9 78.0,148.1 78.5,198.3 79.0,177.7 79.5,214.8 80.0,250.3 80.5,281.8 81.0,308.1 81.5,328.2 82.0,315.0 82.5,316.8 83.0,318.1 83.5,318.9 84.0,319.2 84.5,319.0 85.0,318.3 85.5,317.2 86.0,315.6 86.5,313.7 87.0,311.4 87.5,308.9 88.0,306.1 88.5,303.2 89.0,300.1 89.5,297.0 90.0,293.9 90.5,290.9 91.0,288.0 91.5,285.3 92.0,282.8 92.5,280.6 93.0,278.7 93.5,277.1 94.0,275.9 94.5,275.1 95.0,274.7 95.5,274.7 96.0,275.1 96.5,275.8 97.0,276.9 97.5,278.2 98.0,279.7 98.5,281.4 99.0,283.2 99.5,285.0 100.0,286.8 100.5,288.4 101.0,289.9 101.5,291.2 102.0,292.2 102.5,263.0 103.0,264.4 103.5,260.6 104.0,251.1 104.5,235.4 105.0,213.6 105.5,144.3 106.0,114.0 106.5,85.5 107.0,63.1 107.5,51.1 108.0,52.6 108.5,68.7 109.0,98.9 109.5,140.7 110.1,190.1 110.6,171.8 111.1,209.0 111.6,244.9 112.1,277.2 112.6,304.3 113.1,325.5 113.6,314.7 114.1,316.6 114.6,317.9 115.1,318.8 115.6,319.2 116.1,319.0 116.6,318.4 117.1,317.4 117.6,315.9 118.1,314.0 118.6,311.8 119.1,309.3 119.6,306.6 120.1,303.7 120.6,300.6 121.1,297.5 121.6,294.4 122.1,291.4 122.6,288.4 123.1,285.7 123.6,283.2 124.1,280.9 124.6,278.9 125.1,277.3 125.6,276.1 126.1,275.2 126.6,274.8 127.1,274.7 127.6,275.0 128.1,275.7 128.6,276.7 129.1,278.0 129.6,279.5 130.1,281.1 130.6,282.9 131.1,284.7 131.6,286.5 132.1,288.2 132.6,289.7 133.1,291.0 133.6,292.0 134.1,292.7 134.6,264.5 135.1,261.6 135.6,253.0 136.1,238.3 136.6,217.4 137.1,148.9 137.6,118.8 138.1,89.7 138.6,66.0 139.1,52.2 139.6,51.4 140.1,65.2 140.6,93.3 141.1,133.5 141.6,182.0 142.1,234.1 142.6,203.1 143.1,239.4 143.6,272.4 144.1,300.4 144.6,322.6 145.1,314.4 145.6,316.3 146.1,317.8 146.6,318.7 147.1,319.1 147.6,319.1 148.1,318.5 148.6,317.6 149.1,316.1 149.6,314.3 150.1,312.2 150.6,309.7 151.1,307.0 151.6,304.1 152.1,301.1 152.6,298.0 153.1,294.9 153.6,291.8 154.1,288.9 154.6,286.1 155.1,283.5 155.6,281.2 156.1,279.2 156.6,277.6 157.1,276.3 157.6,275.3 158.1,274.8 158.6,274.7 159.1,275.0 159.6,275.6 160.1,276.5 160.6,277.8 161.1,279.2 161.6,280.9 162.1,282.6 162.6,284.4 163.1,286.2 163.6,287.9 164.1,289.5 164.6,290.8 165.1,291.9 165.6,292.6 166.1,264.5 166.6,262.4 167.1,254.8 167.6,241.1 168.1,221.1 168.6,153.4 169.1,123.6 169.6,94.0 170.1,69.2 170.6,53.6 171.1,50.6 171.6,62.0 172.1,88.0 172.6,126.5 173.1,174.0 173.6,225.8 174.1,197.3 174.6,233.9 175.1,267.5 175.6,296.4 176.1,319.5 176.6,314.0 177.1,316.0 177.6,317.6 178.1,318.6 178.6,319.1 179.1,319.1 179.6,318.7 180.1,317.7 180.6,316.4 181.1,314.6 181.6,312.5 182.1,310.1 182.6,307.5 183.1,304.6 183.6,301.6 184.1,298.5 184.6,295.4 185.1,292.3 185.6,289.4 186.1,286.5 186.6,283.9 187.1,281.6 187.6,279.5 188.1,277.8 188.6,276.4 189.1,275.5 189.6,274.9 190.1,274.7 190.6,274.9 191.1,275.5 191.6,276.4 192.1,277.5 192.6,279.0 193.1,280.6 193.6,282.4 194.1,284.2 194.6,286.0 195.1,287.7 195.6,289.3 196.1,290.6 196.6,291.7 197.1,292.6 197.6,264.3 198.1,263.1 198.6,256.4 199.1,243.6 199.6,224.7 200.1,157.9 200.6,128.4 201.1,98.5 201.6,72.6 202.1,55.3 202.6,50.1 203.1,59.2 203.6,83.0 204.1,119.7 204.6,166.0 205.1,217.5 205.6,191.4 206.1,228.2 206.6,262.5 207.1,292.2 207.6,316.2 208.1,313.6 208.6,315.8 209.1,317.4 209.6,318.5 210.1,319.1 210.6,319.2 211.1,318.8 211.6,317.9 212.1,316.6 212.6,314.9 213.1,312.9 213.6,310.5 214.1,307.9 214.6,305.1 215.1,302.1 215.6,299.0 216.1,295.9 216.6,292.8 217.1,289.8 217.6,287.0 218.1,284.3 218.6,281.9 219.1,279.8 219.6,278.0 220.1,276.6 220.6,275.6 221.1,274.9 221.6,274.7 222.1,274.8 222.6,275.3 223.1,276.2 223.6,277.3 224.1,278.7 224.6,280.3 225.1,282.1 225.6,283.9 226.1,285.7 226.6,287.4 227.1,289.0 227.6,290.4 228.1,291.6 228.6,292.5 229.1,264.1 229.6,263.6 230.2,257.8 230.7,246.1 231.2,228.1 231.7,162.2 232.2,133.2 232.7,103.1 233.2,76.3 233.7,57.3 234.2,50.0 234.7,56.8 235.2,78.3 235.7,113.2 236.2,158.3 236.7,209.3 237.2,185.5 237.7,222.5 238.2,257.3 238.7,287.8 239.2,312.8 239.7,313.3 240.2,315.5 240.7,317.1 241.2,318.3 241.7,319.0 242.2,319.2 242.7,318.9 243.2,318.1 243.7,316.9 244.2,315.2 244.7,313.2 245.2,310.9 245.7,308.3 246.2,305.5 246.7,302.5 247.2,299.5 247.7,296.4 248.2,293.3 248.7,290.3 249.2,287.4 249.7,284.7 250.2,282.3 250.7,280.1 251.2,278.3 251.7,276.8 252.2,275.7 252.7,275.0 253.2,274.7 253.7,274.8 254.2,275.2 254.7,276.0 255.2,277.1 255.7,278.5 256.2,280.1 256.7,281.8 257.2,283.6 257.7,285.4 258.2,287.1 258.7,288.8 259.2,290.2 259.7,291.4 260.2,292.3 260.7,263.7 261.2,264.0 261.7,259.1 262.2,248.3 262.7,231.3 263.2,208.3 263.7,138.0 264.2,107.7 264.7,80.1 265.2,59.6 265.7,50.3 266.2,54.8 266.7,74.0 267.2,106.9 267.7,150.6 268.2,201.0 268.7,179.6 269.2,216.8 269.7,252.1 270.2,283.4 270.7,309.3 271.2,329.1 271.7,315.1 272.2,316.9 272.7,318.2 273.2,318.9 273.7,319.2 274.2,318.9 274.7,318.2 275.2,317.1 275.7,315.5 276.2,313.6 276.7,311.3 277.2,308.8 277.7,306.0 278.2,303.0 278.7,300.0 279.2,296.9 279.7,293.8 280.2,290.7 280.7,287.8 281.2,285.1 281.7,282.6 282.2,280.4 282.7,278.6 283.2,277.0 283.7,275.9 284.2,275.1 284.7,274.7 285.2,274.8 285.7,275.1 286.2,275.9 286.7,277.0 287.2,278.3 287.7,279.8 288.2,281.5 288.7,283.3 289.2,285.1 289.7,286.9 290.2,288.5 290.7,290.0 291.2,291.3 291.7,292.2 292.2,263.2 292.7,264.3 293.2,260.3 293.7,250.4 294.2,234.4 294.7,212.3 295.2,142.7 295.7,112.4 296.2,84.1 296.7,62.2 297.2,50.9 297.7,53.1 298.2,70.0 298.7,100.9 299.2,143.2 299.7,192.8 300.2,173.8 300.7,211.0 301.2,246.7 301.7,278.8 302.2,305.6 302.7,326.4 303.2,314.8 303.7,316.7 304.2,318.0 304.7,318.8 305.2,319.2 305.7,319.0 306.2,318.4 306.7,317.3 307.2,315.8 307.7,313.9 308.2,311.7 308.7,309.2 309.2,306.4 309.7,303.5 310.2,300.5 310.7,297.4 311.2,294.3 311.7,291.2 312.2,288.3 312.7,285.5 313.2,283.0 313.7,280.8 314.2,278.8 314.7,277.2 315.2,276.0 315.7,275.2 316.2,274.8 316.7,274.7 317.2,275.1 317.7,275.8 318.2,276.8 318.7,278.1 319.2,279.6 319.7,281.2 320.2,283.0 320.7,284.8 321.2,286.6 321.7,288.3 322.2,289.8 322.7,291.1 323.2,292.1 323.7,262.5 324.2,264.5 324.7,261.3 325.2,252.4 325.7,237.4 326.2,216.2 326.7,147.4 327.2,117.2 327.7,88.2 328.2,65.0 328.7,51.8 329.2,51.7 329.7,66.3 330.2,95.2 330.7,135.9 331.2,184.7 331.7,168.0 332.2,205.1 332.7,241.3 333.2,274.0 333.7,301.7 334.2,323.6 334.7,314.5 335.2,316.4 335.7,317.8 336.2,318.7 336.7,319.2 337.2,319.1 337.7,318.5 338.2,317.5 338.7,316.1 339.2,314.2 339.7,312.1 340.2,309.6 340.7,306.9 341.2,304.0 341.7,300.9 342.2,297.8 342.7,294.7 343.2,291.7 343.7,288.7 344.2,286.0 344.7,283.4 345.2,281.1 345.7,279.1 346.2,277.5 346.7,276.2 347.2,275.3 347.7,274.8 348.2,274.7 348.7,275.0 349.2,275.6 349.7,276.6 350.3,277.8 350.8,279.3 351.3,281.0 351.8,282.7 352.3,284.5 352.8,286.3 353.3,288.0 353.8,289.6 354.3,290.9 354.8,291.9 355.3,292.7 355.8,264.5 356.3,262.1 356.8,254.2 357.3,240.2 357.8,219.9 358.3,151.9 358.8,122.0 359.3,92.6 359.8,68.1 360.3,53.1 360.8,50.8 361.3,63.1 361.8,89.7 362.3,128.8 362.8,176.6 363.3,228.6 363.8,199.2 364.3,235.7 364.8,269.2 365.3,297.7 365.8,320.5 366.3,314.1 366.8,316.1 367.3,317.6 367.8,318.6 368.3,319.1 368.8,319.1 369.3,318.6 369.8,317.7 370.3,316.3 370.8,314.5 371.3,312.4 371.8,310.0 372.3,307.3 372.8,304.4 373.3,301.4 373.8,298.3 374.3,295.2 374.8,292.2 375.3,289.2 375.8,286.4 376.3,283.8 376.8,281.5 377.3,279.4 377.8,277.7 378.3,276.4 378.8,275.4 379.3,274.9 379.8,274.7 380.3,274.9 380.8,275.5 381.3,276.4 381.8,277.6 382.3,279.1 382.8,280.7 383.3,282.4 383.8,284.3 384.3,286.0 384.8,287.8 385.3,289.3 385.8,290.7 386.3,291.8 386.8,292.6 387.3,264.4 387.8,262.9 388.3,255.9 388.8,242.8 389.3,223.5 389.8,156.4 390.3,126.8 390.8,97.0 391.3,71.5 391.8,54.7 392.3,50.2 392.8,60.1 393.3,84.6 393.8,121.9 394.3,168.7 394.8,220.3 395.3,193.3 395.8,230.1 396.3,264.2 396.8,293.6 397.3,317.3 397.8,313.8 398.3,315.8 398.8,317.4 399.3,318.5 399.8,319.1 400.3,319.1 400.8,318.7 401.3,317.9 401.8,316.5 402.3,314.8 402.8,312.8 403.3,310.4 403.8,307.8 404.3,304.9 404.8,301.9 405.3,298.8 405.8,295.7 406.3,292.6 406.8,289.7 407.3,286.8 407.8,284.2 408.3,281.8 408.8,279.7 409.3,278.0 409.8,276.6 410.3,275.5 410.8,274.9 411.3,274.7 411.8,274.9 412.3,275.4 412.8,276.2 413.3,277.4 413.8,278.8 414.3,280.4 414.8,282.2 415.3,284.0 415.8,285.8 416.3,287.5 416.8,289.1 417.3,290.5 417.8,291.6 418.3,292.5 418.8,264.2 419.3,263.5 419.8,257.4 420.3,245.3 420.8,226.9 421.3,160.8 421.8,131.6 422.3,101.5 422.8,75.0 423.3,56.6 423.8,50.0 424.3,57.6 424.8,79.8 425.3,115.3 425.8,160.8 426.3,212.0 426.8,187.5 427.3,224.4 427.8,259.1 428.3,289.3 428.8,314.0 429.3,313.4 429.8,315.6 430.3,317.2 430.8,318.4 431.3,319.0 431.8,319.2 432.3,318.8 432.8,318.0 433.3,316.8 433.8,315.1 434.3,313.1 434.8,310.8 435.3,308.2 435.8,305.4 436.3,302.4 436.8,299.3 437.3,296.2 437.8,293.1 438.3,290.1 438.8,287.3 439.3,284.6 439.8,282.2 440.3,280.0 440.8,278.2 441.3,276.8 441.8,275.7 442.3,275.0 442.8,274.7 443.3,274.8 443.8,275.3 444.3,276.1 444.8,277.2 445.3,278.6 445.8,280.2 446.3,281.9 446.8,283.7 447.3,285.5 447.8,287.2 448.3,288.9 448.8,290.3 449.3,291.5 449.8,292.4 450.3,263.8 450.8,263.9 451.3,258.7 451.8,247.6 452.3,230.2 452.8,207.0 453.3,136.4 453.8,106.2 454.3,78.8 454.8,58.8 455.3,50.1 455.8,55.4 456.3,75.4 456.8,109.0 457.3,153.2 457.8,203.8 458.3,181.6 458.8,218.7 459.3,253.8 459.8,284.9 460.3,310.5 460.8,330.0 461.3,315.2 461.8,317.0 462.3,318.2 462.8,319.0 463.3,319.2 463.8,318.9 464.3,318.2 464.8,317.0 465.3,315.4 465.8,313.5 466.3,311.2 466.8,308.6 467.3,305.8 467.8,302.9 468.3,299.8 468.8,296.7 469.3,293.6 469.8,290.6 470.4,287.7 470.9,285.0 471.4,282.5 471.9,280.3 472.4,278.5 472.9,277.0 473.4,275.8 473.9,275.1 474.4,274.7 474.9,274.8 475.4,275.2 475.9,275.9 476.4,277.0 476.9,278.4 477.4,279.9 477.9,281.6 478.4,283.4 478.9,285.2 479.4,287.0 479.9,288.6 480.4,290.1 480.9,291.3 481.4,292.3 481.9,263.4 482.4,264.2 482.9,259.9 483.4,249.8 483.9,233.4 484.4,211.0 484.9,141.1 485.4,110.9 485.9,82.7 486.4,61.3 486.9,50.6 487.4,53.6 487.9,71.3 488.4,102.9 488.9,145.6 489.4,195.5 489.9,175.7 490.4,212.9 490.9,248.5 491.4,280.3 491.9,306.8 492.4,327.3 492.9,314.9 493.4,316.7 493.9,318.1 494.4,318.9 494.9,319.2 495.4,319.0 495.9,318.3 496.4,317.2 496.9,315.7 497.4,313.8 497.9,311.6 498.4,309.0 498.9,306.3 499.4,303.3 499.9,300.3 500.4,297.2 500.9,294.1 501.4,291.1 501.9,288.1 502.4,285.4 502.9,282.9 503.4,280.7 503.9,278.7 504.4,277.2 504.9,276.0 505.4,275.2 505.9,274.8 506.4,274.7 506.9,275.1 507.4,275.8 507.9,276.8 508.4,278.1 508.9,279.6 509.4,281.3 509.9,283.1 510.4,284.9 510.9,286.7 511.4,288.4 511.9,289.9 512.4,291.1 512.9,292.1 513.4,262.8 513.9,264.4 514.4,261.0 514.9,251.8 515.4,236.4 515.9,214.9 516.4,145.8 516.9,115.6 517.4,86.8 517.9,64.1 518.4,51.5 518.9,52.1 519.4,67.5 519.9,97.0 520.4,138.3 520.9,187.4 521.4,169.9 521.9,207.1 522.4,243.1 522.9,275.6 523.4,303.0 523.9,324.5 524.4,314.6 524.9,316.5 525.4,317.9 525.9,318.8 526.4,319.2 526.9,319.0 527.4,318.5 527.9,317.4 528.4,316.0 528.9,314.1 529.4,311.9 529.9,309.4 530.4,306.7 530.9,303.8 531.4,300.8 531.9,297.7 532.4,294.6 532.9,291.5 533.4,288.6 533.9,285.8 534.4,283.3 534.9,281.0 535.4,279.0 535.9,277.4 536.4,276.1 536.9,275.3 537.4,274.8 537.9,274.7 538.4,275.0 538.9,275.7 539.4,276.6 539.9,277.9 540.4,279.4 540.9,281.1 541.4,282.8 541.9,284.6 542.4,286.4 542.9,288.1 543.4,289.6 543.9,291.0 544.4,292.0 544.9,292.7 545.4,264.5 545.9,261.9 546.4,253.6 546.9,239.2 547.4,218.7 547.9,150.4 548.4,120.4 548.9,91.1 549.4,67.1 549.9,52.6 550.4,51.1 550.9,64.1 551.4,91.5 551.9,131.1 552.4,179.3 552.9,231.3 553.4,201.2 553.9,237.6 554.4,270.8 554.9,299.1 555.4,321.6 555.9,314.2 556.4,316.2 556.9,317.7 557.4,318.7 557.9,319.1 558.4,319.1 558.9,318.6 559.4,317.6 559.9,316.2 560.4,314.4 560.9,312.3 561.4,309.9 561.9,307.2 562.4,304.3 562.9,301.3 563.4,298.2 563.9,295.1 564.4,292.0 564.9,289.0 565.4,286.2 565.9,283.7 566.4,281.3 566.9,279.3 567.4,277.6 567.9,276.3 568.4,275.4 568.9,274.8 569.4,274.7 569.9,274.9 570.4,275.5 570.9,276.5 571.4,277.7 571.9,279.1 572.4,280.8 572.9,282.5 573.4,284.3 573.9,286.1 574.4,287.8 574.9,289.4 575.4,290.8 575.9,291.8 576.4,292.6 576.9,264.4 577.4,262.6 577.9,255.3 578.4,241.9 578.9,222.3 579.4,154.9 579.9,125.2 580.4,95.5 580.9,70.3 581.4,54.1 581.9,50.4 582.4,61.1 582.9,86.3 583.4,124.2 583.9,171.3 584.4,223.1 584.9,195.3 585.4,232.0 585.9,265.8 586.4,295.0 586.9,318.4 587.4,313.9 587.9,315.9 588.4,317.5 588.9,318.5 589.4,319.1 589.9,319.1 590.5,318.7 591.0,317.8 591.5,316.5 592.0,314.7 592.5,312.7 593.0,310.3 593.5,307.6 594.0,304.8 594.5,301.7 595.0,298.7 595.5,295.6 596.0,292.5 596.5,289.5 597.0,286.7 597.5,284.1 598.0,281.7 598.5,279.6 599.0,277.9 599.5,276.5 600.0,275.5 600.5,274.9 601.0,274.7 601.5,274.9 602.0,275.4 602.5,276.3 603.0,277.5 603.5,278.9 604.0,280.5 604.5,282.3 605.0,284.1 605.5,285.9 606.0,287.6 606.5,289.2 607.0,290.6 607.5,291.7 608.0,292.5 608.5,264.3 609.0,263.3 609.5,256.9 610.0,244.5 610.5,225.8 611.0,159.4 611.5,130.0 612.0,100.0 612.5,73.8 613.0,55.9 613.5,50.0 614.0,58.4 614.5,81.4 615.0,117.5 615.5,163.4 616.0,214.8 616.5,189.4 617.0,226.3 617.5,260.8 618.0,290.8 618.5,315.1 619.0,313.5 619.5,315.7 620.0,317.3 620.5,318.4 621.0,319.0 621.5,319.2 622.0,318.8 622.5,318.0 623.0,316.7 623.5,315.0 624.0,313.0 624.5,310.7 625.0,308.0 625.5,305.2 626.0,302.2 626.5,299.2 627.0,296.0 627.5,293.0 628.0,290.0 628.5,287.1 629.0,284.5 629.5,282.0 630.0,279.9 630.5,278.1 631.0,276.7 631.5,275.6 632.0,275.0 632.5,274.7 633.0,274.8 633.5,275.3 634.0,276.1 634.5,277.3 635.0,278.7 635.5,280.3 636.0,282.0 636.5,283.8 637.0,285.6 637.5,287.3 638.0,288.9 638.5,290.4 639.0,291.5 639.5,292.4 640.0,263.9 640.5,263.8 641.0,258.3 641.5,246.8 642.0,229.2 642.5,163.7 643.0,134.8 643.5,104.6 644.0,77.5 644.5,58.0 645.0,50.1 645.5,56.1 646.0,76.8 646.5,111.0 647.0,155.7 647.5,206.5 648.0,183.5 648.5,220.6 649.0,255.6 649.5,286.4 650.0,311.7" fill="none" stroke="#2a5caa" stroke-width="1.5"/>
<text x="350.0" y="372.0" font-size="11" font-family="sans-serif">t (s)</text>
<text x="8.0" y="190.0" font-size="11" font-family="sans-serif" transform="rotate(-90 8,190.0)">Thrust (N)</text>
</svg>
