<svg xmlns="http://www.w3.org/2000/svg" width="700" height="380">
<rect width="100%" height="100%" fill="#ffffff"/>
<text x="50" y="38" font-size="14" font-family="sans-serif">Lift vs time (amp=0.02, delta=0.500)</text>
<line x1="50.0" y1="330.0" x2="650.0" y2="330.0" stroke="#333" stroke-width="1"/>
<line x1="50.0" y1="50.0" x2="50.0" y2="330.0" stroke="#333" stroke-width="1"/>
<polyline points="50.0,323.5 52.0,317.2 54.0,309.0 56.0,299.1 58.0,287.8 60.0,275.3 62.0,261.9 64.0,247.9 66.1,233.6 68.1,219.1 70.1,204.6 72.1,190.1 74.1,175.6 76.1,161.0 78.1,146.4 80.1,131.5 82.1,116.4 84.1,102.4 86.1,102.5 88.1,109.1 90.1,105.1 92.1,97.2 94.1,88.8 96.2,79.2 98.2,69.7 100.2,62.6 102.2,55.5 104.2,51.5 106.2,50.0 108.2,50.3 110.2,53.3 112.2,59.1 114.2,67.4 116.2,77.9 118.2,90.4 120.2,104.4 122.2,118.7 124.2,134.3 126.3,149.4 128.3,164.3 130.3,178.0 132.3,191.1 134.3,202.7 136.3,212.6 138.3,220.2 140.3,224.9 142.3,233.5 144.3,248.0 146.3,261.3 148.3,273.6 150.3,284.9 152.3,295.2 154.3,304.4 156.4,312.4 158.4,319.2 160.4,324.5 162.4,328.1 164.4,330.0 166.4,329.9 168.4,327.8 170.4,323.5 172.4,317.3 174.4,309.1 176.4,299.3 178.4,287.9 180.4,275.4 182.4,262.1 184.4,248.1 186.5,233.8 188.5,219.3 190.5,204.8 192.5,190.2 194.5,175.7 196.5,161.2 198.5,146.6 200.5,131.7 202.5,116.6 204.5,102.6 206.5,102.6 208.5,109.2 210.5,105.2 212.5,97.4 214.5,88.9 216.6,79.3 218.6,69.8 220.6,62.7 222.6,55.6 224.6,51.6 226.6,50.0 228.6,50.3 230.6,53.3 232.6,59.0 234.6,67.2 236.6,77.8 238.6,90.3 240.6,104.2 242.6,118.5 244.6,134.2 246.7,149.2 248.7,164.1 250.7,177.9 252.7,190.9 254.7,202.6 256.7,212.4 258.7,220.1 260.7,224.7 262.7,233.3 264.7,247.8 266.7,261.2 268.7,273.5 270.7,284.8 272.7,295.1 274.7,304.3 276.8,312.4 278.8,319.1 280.8,324.4 282.8,328.1 284.8,330.0 286.8,329.9 288.8,327.8 290.8,323.6 292.8,317.4 294.8,309.2 296.8,299.4 298.8,288.1 300.8,275.6 302.8,262.2 304.8,248.3 306.9,233.9 308.9,219.5 310.9,204.9 312.9,190.4 314.9,175.9 316.9,161.4 318.9,146.8 320.9,131.9 322.9,116.8 324.9,102.7 326.9,101.8 328.9,109.4 330.9,105.4 332.9,97.5 334.9,89.1 337.0,79.4 339.0,69.9 341.0,62.8 343.0,55.7 345.0,51.6 347.0,50.0 349.0,50.2 351.0,53.2 353.0,58.9 355.0,67.1 357.0,77.7 359.0,90.1 361.0,104.1 363.0,118.3 365.1,134.0 367.1,149.0 369.1,163.9 371.1,177.7 373.1,190.7 375.1,202.4 377.1,212.3 379.1,219.9 381.1,224.6 383.1,233.1 385.1,247.6 387.1,261.0 389.1,273.3 391.1,284.7 393.1,295.0 395.2,304.2 397.2,312.3 399.2,319.0 401.2,324.4 403.2,328.1 405.2,330.0 407.2,329.9 409.2,327.8 411.2,323.7 413.2,317.5 415.2,309.3 417.2,299.5 419.2,288.2 421.2,275.8 423.2,262.4 425.3,248.4 427.3,234.1 429.3,219.6 431.3,205.1 433.3,190.6 435.3,176.1 437.3,161.6 439.3,146.9 441.3,132.1 443.3,117.0 445.3,102.6 447.3,101.9 449.3,109.5 451.3,105.5 453.3,97.7 455.4,89.2 457.4,79.6 459.4,70.1 461.4,62.9 463.4,55.7 465.4,51.7 467.4,50.0 469.4,50.2 471.4,53.2 473.4,58.8 475.4,67.0 477.4,77.5 479.4,90.0 481.4,103.9 483.4,118.2 485.5,133.8 487.5,148.9 489.5,163.7 491.5,177.5 493.5,190.6 495.5,202.3 497.5,212.1 499.5,219.8 501.5,224.7 503.5,233.0 505.5,247.5 507.5,260.8 509.5,273.2 511.5,284.5 513.5,294.8 515.6,304.1 517.6,312.2 519.6,319.0 521.6,324.3 523.6,328.0 525.6,330.0 527.6,329.9 529.6,327.9 531.6,323.7 533.6,317.5 535.6,309.5 537.6,299.6 539.6,288.4 541.6,275.9 543.6,262.6 545.7,248.6 547.7,234.3 549.7,219.8 551.7,205.3 553.7,190.8 555.7,176.3 557.7,161.7 559.7,147.1 561.7,132.3 563.7,117.1 565.7,102.8 567.7,102.1 569.7,109.7 571.7,105.7 573.7,97.8 575.8,89.3 577.8,79.7 579.8,70.2 581.8,63.0 583.8,55.8 585.8,51.7 587.8,50.1 589.8,50.2 591.8,53.1 593.8,58.7 595.8,66.9 597.8,77.4 599.8,89.8 601.8,103.7 603.8,118.0 605.9,133.6 607.9,148.7 609.9,163.6 611.9,177.3 613.9,190.4 615.9,202.1 617.9,212.0 619.9,219.6 621.9,224.8 623.9,232.8 625.9,247.3 627.9,260.7 629.9,273.1 631.9,284.4 633.9,294.7 636.0,304.0 638.0,312.1 640.0,318.9 642.0,324.3 644.0,328.0 646.0,330.0 648.0,330.0 650.0,327.9" fill="none" stroke="#2a5caa" stroke-width="1.5"/>
<text x="350.0" y="372.0" font-size="11" font-family="sans-serif">t (s)</text>
<text x="8.0" y="190.0" font-size="11" font-family="sans-serif" transform="rotate(-90 8,190.0)">Lift (N)</text>
</svg>
