<svg xmlns="http://www.w3.org/2000/svg" width="700" height="380">
<rect width="100%" height="100%" fill="#ffffff"/>
<text x="50" y="38" font-size="14" font-family="sans-serif">Lift vs time (amp=0.08, delta=0.520)</text>
<line x1="50.0" y1="330.0" x2="650.0" y2="330.0" stroke="#333" stroke-width="1"/>
<line x1="50.0" y1="50.0" x2="50.0" y2="330.0" stroke="#333" stroke-width="1"/>
<polyline points="50.0,321.0 52.0,312.9 54.0,302.5 56.0,290.1 58.0,276.3 60.0,261.3 62.0,245.8 64.0,230.0 66.1,214.4 68.1,199.0 70.1,184.0 72.1,169.4 74.1,155.1 76.1,141.0 78.1,127.1 80.1,113.0 82.1,99.0 84.1,89.3 86.1,99.7 88.1,101.1 90.1,95.6 92.1,88.5 94.1,81.0 96.2,73.4 98.2,65.9 100.2,59.7 102.2,55.0 104.2,52.0 106.2,50.2 108.2,50.4 110.2,53.5 112.2,57.9 114.2,64.3 116.2,72.6 118.2,81.7 120.2,93.1 122.2,105.6 124.2,118.1 126.3,132.0 128.3,145.3 130.3,158.0 132.3,171.1 134.3,182.6 136.3,193.7 138.3,202.9 140.3,210.1 142.3,213.1 144.3,227.9 146.3,243.4 148.3,258.0 150.3,271.6 152.3,284.3 154.3,295.8 156.4,306.0 158.4,314.8 160.4,321.8 162.4,326.8 164.4,329.5 166.4,329.8 168.4,327.4 170.4,322.3 172.4,314.7 174.4,304.7 176.4,292.6 178.4,279.0 180.4,264.3 182.4,248.8 184.4,233.1 186.5,217.4 188.5,201.9 190.5,186.8 192.5,172.2 194.5,157.8 196.5,143.7 198.5,129.8 200.5,115.7 202.5,101.6 204.5,90.1 206.5,97.9 208.5,101.4 210.5,96.8 212.5,90.6 214.5,82.9 216.6,75.1 218.6,67.4 220.6,60.9 222.6,55.9 224.6,52.6 226.6,50.4 228.6,50.2 230.6,52.9 232.6,56.9 234.6,62.9 236.6,70.9 238.6,80.5 240.6,90.8 242.6,103.1 244.6,115.5 246.7,129.3 248.7,142.6 250.7,156.0 252.7,168.5 254.7,180.7 256.7,191.9 258.7,201.1 260.7,209.0 262.7,214.0 264.7,224.8 266.7,240.5 268.7,255.2 270.7,269.1 272.7,281.9 274.7,293.6 276.8,304.1 278.8,313.2 280.8,320.6 282.8,326.0 284.8,329.2 286.8,329.9 288.8,328.1 290.8,323.5 292.8,316.3 294.8,306.8 296.8,295.1 298.8,281.8 300.8,267.2 302.8,251.8 304.8,236.1 306.9,220.4 308.9,204.9 310.9,189.7 312.9,175.0 314.9,160.6 316.9,146.4 318.9,132.4 320.9,118.4 322.9,104.4 324.9,91.9 326.9,96.0 328.9,101.6 330.9,98.0 332.9,91.7 334.9,84.0 337.0,76.0 339.0,69.0 341.0,62.2 343.0,56.9 345.0,52.4 347.0,50.7 349.0,50.0 351.0,52.4 353.0,56.0 355.0,61.6 357.0,69.2 359.0,78.5 361.0,88.5 363.0,100.6 365.1,113.7 367.1,126.6 369.1,139.9 371.1,153.3 373.1,165.9 375.1,178.1 377.1,189.4 379.1,199.7 381.1,207.5 383.1,213.2 385.1,221.7 387.1,237.5 389.1,252.5 391.1,266.5 393.1,279.5 395.2,291.5 397.2,302.2 399.2,311.6 401.2,319.3 403.2,325.1 405.2,328.8 407.2,330.0 409.2,328.6 411.2,324.6 413.2,317.9 415.2,308.8 417.2,297.5 419.2,284.4 421.2,270.1 423.2,254.8 425.3,239.2 427.3,223.4 429.3,207.8 431.3,192.6 433.3,177.8 435.3,163.3 437.3,149.1 439.3,135.1 441.3,121.2 443.3,107.0 445.3,93.8 447.3,93.3 449.3,101.9 451.3,99.2 453.3,92.9 455.4,86.0 457.4,77.9 459.4,70.6 461.4,63.6 463.4,58.0 465.4,53.1 467.4,51.0 469.4,50.0 471.4,51.1 473.4,55.1 475.4,60.4 477.4,67.6 479.4,76.6 481.4,86.4 483.4,98.2 485.5,111.1 487.5,123.9 489.5,137.2 491.5,150.6 493.5,163.8 495.5,176.2 497.5,187.5 499.5,197.9 501.5,206.1 503.5,212.5 505.5,218.6 507.5,234.6 509.5,249.7 511.5,263.8 513.5,277.1 515.6,289.2 517.6,300.2 519.6,309.9 521.6,317.9 523.6,324.2 525.6,328.2 527.6,330.0 529.6,329.1 531.6,325.6 533.6,319.4 535.6,310.7 537.6,299.8 539.6,287.1 541.6,272.9 543.6,257.8 545.7,242.2 547.7,226.4 549.7,210.8 551.7,195.5 553.7,180.6 555.7,166.1 557.7,151.9 559.7,137.8 561.7,123.9 563.7,109.7 565.7,96.2 567.7,90.1 569.7,101.1 571.7,100.4 573.7,94.9 575.8,87.0 577.8,79.7 579.8,71.4 581.8,65.0 583.8,59.1 585.8,53.9 587.8,51.4 589.8,50.0 591.8,50.7 593.8,54.3 595.8,59.2 597.8,66.0 599.8,74.7 601.8,84.2 603.8,95.8 605.9,108.5 607.9,121.3 609.9,134.5 611.9,147.9 613.9,161.2 615.9,173.6 617.9,185.6 619.9,196.0 621.9,204.7 623.9,211.6 625.9,215.4 627.9,231.5 629.9,246.8 631.9,261.2 633.9,274.6 636.0,287.0 638.0,298.2 640.0,308.1 642.0,316.5 644.0,323.1 646.0,327.6 648.0,329.8 650.0,329.5" fill="none" stroke="#2a5caa" stroke-width="1.5"/>
<text x="350.0" y="372.0" font-size="11" font-family="sans-serif">t (s)</text>
<text x="8.0" y="190.0" font-size="11" font-family="sans-serif" transform="rotate(-90 8,190.0)">Lift (N)</text>
</svg>
