<svg xmlns="http://www.w3.org/2000/svg" width="700" height="380">
<rect width="100%" height="100%" fill="#ffffff"/>
<text x="50" y="38" font-size="14" font-family="sans-serif">Separated-Flow Ratio vs delta (amp=0.20)</text>
<line x1="50.0" y1="330.0" x2="650.0" y2="330.0" stroke="#333" stroke-width="1"/>
<line x1="50.0" y1="50.0" x2="50.0" y2="330.0" stroke="#333" stroke-width="1"/>
<polyline points="50.0,50.0 80.0,70.8 110.0,76.4 140.0,95.5 170.0,113.7 200.0,131.8 230.0,147.9 260.0,175.9 290.0,180.6 320.0,194.6 350.0,199.6 380.0,209.5 410.0,216.0 440.0,226.8 470.0,242.6 500.0,258.0 530.0,271.2 560.0,276.3 590.0,303.7 620.0,313.6 650.0,330.0" fill="none" stroke="#b04a2f" stroke-width="1.5"/>
<text x="350.0" y="372.0" font-size="11" font-family="sans-serif">downstroke ratio delta</text>
<text x="8.0" y="190.0" font-size="11" font-family="sans-serif" transform="rotate(-90 8,190.0)">sep_ratio</text>
</svg>
