<svg xmlns="http://www.w3.org/2000/svg" width="700" height="380">
<rect width="100%" height="100%" fill="#ffffff"/>
<text x="50" y="38" font-size="14" font-family="sans-serif">Thrust vs time (amp=0.16, delta=0.420)</text>
<line x1="50.0" y1="330.0" x2="650.0" y2="330.0" stroke="#333" stroke-width="1"/>
<line x1="50.0" y1="50.0" x2="50.0" y2="330.0" stroke="#333" stroke-width="1"/>
<polyline points="50.0,50.0 52.0,53.2 54.0,63.7 56.0,81.0 58.0,103.8 60.0,130.4 62.0,158.8 64.0,187.0 66.1,213.5 68.1,237.0 70.1,256.4 72.1,271.3 74.1,281.6 76.1,287.4 78.1,288.5 80.1,285.3 82.1,280.2 84.1,281.4 86.1,288.3 88.1,295.1 90.1,301.1 92.1,306.9 94.1,312.2 96.2,317.1 98.2,321.2 100.2,324.6 102.2,326.9 104.2,329.0 106.2,329.8 108.2,329.8 110.2,329.4 112.2,327.6 114.2,325.0 116.2,321.6 118.2,317.4 120.2,311.8 122.2,306.1 124.2,299.8 126.3,292.3 128.3,285.0 130.3,276.8 132.3,268.3 134.3,259.1 136.3,250.0 138.3,240.4 140.3,230.7 142.3,218.3 144.3,199.8 146.3,192.2 148.3,194.6 150.3,193.5 152.3,188.8 154.3,180.2 156.4,167.9 158.4,152.3 160.4,134.0 162.4,114.3 164.4,94.5 166.4,76.5 168.4,62.0 170.4,52.7 172.4,50.0 174.4,54.7 176.4,66.6 178.4,85.2 180.4,108.8 182.4,135.9 184.4,164.4 186.5,192.5 188.5,218.5 190.5,241.2 192.5,259.7 194.5,273.8 196.5,283.1 198.5,288.0 200.5,288.1 202.5,284.3 204.5,279.6 206.5,283.0 208.5,289.7 210.5,296.4 212.5,302.5 214.5,308.3 216.6,313.5 218.6,317.9 220.6,321.8 222.6,325.1 224.6,327.3 226.6,329.2 228.6,329.9 230.6,329.7 232.6,329.1 234.6,327.2 236.6,324.4 238.6,320.8 240.6,316.4 242.6,310.7 244.6,304.9 246.7,298.5 248.7,290.9 250.7,283.5 252.7,275.2 254.7,266.7 256.7,257.5 258.7,248.4 260.7,238.9 262.7,228.0 264.7,215.1 266.7,194.7 268.7,192.9 270.7,194.6 272.7,192.9 274.7,187.4 276.8,178.1 278.8,165.1 280.8,148.9 282.8,130.2 284.8,110.3 286.8,90.8 288.8,73.3 290.8,59.7 292.8,51.6 294.8,50.4 296.8,56.5 298.8,69.8 300.8,89.5 302.8,114.0 304.8,141.5 306.9,170.1 308.9,197.8 310.9,223.2 312.9,245.2 314.9,262.9 316.9,276.0 318.9,284.5 320.9,288.4 322.9,287.6 324.9,283.2 326.9,279.1 328.9,284.1 330.9,291.2 332.9,297.6 334.9,303.8 337.0,309.1 339.0,314.3 341.0,318.6 343.0,322.4 345.0,325.6 347.0,328.1 349.0,329.4 351.0,329.9 353.0,330.0 355.0,328.8 357.0,326.7 359.0,323.8 361.0,320.0 363.0,315.5 365.1,309.6 367.1,303.7 369.1,297.1 371.1,289.5 373.1,281.4 375.1,273.6 377.1,264.5 379.1,256.0 381.1,246.3 383.1,236.9 385.1,226.1 387.1,212.7 389.1,189.2 391.1,193.5 393.1,194.6 395.2,192.1 397.2,185.9 399.2,175.8 401.2,162.1 403.2,145.3 405.2,126.3 407.2,106.4 409.2,87.1 411.2,70.2 413.2,57.6 415.2,50.8 417.2,51.0 419.2,58.6 421.2,73.2 423.2,94.0 425.3,119.3 427.3,147.2 429.3,175.7 431.3,203.1 433.3,227.9 435.3,249.0 437.3,265.8 439.3,278.0 441.3,285.6 443.3,288.7 445.3,287.0 447.3,282.1 449.3,279.5 451.3,285.5 453.3,292.3 455.4,298.9 457.4,304.7 459.4,310.5 461.4,315.1 463.4,319.3 465.4,323.0 467.4,326.1 469.4,328.5 471.4,329.6 473.4,329.9 475.4,329.8 477.4,328.4 479.4,326.2 481.4,323.1 483.4,319.2 485.5,314.5 487.5,308.5 489.5,302.4 491.5,295.7 493.5,288.0 495.5,279.9 497.5,271.5 499.5,262.9 501.5,253.8 503.5,244.7 505.5,234.8 507.5,223.4 509.5,208.9 511.5,190.3 513.5,194.0 515.6,194.4 517.6,191.2 519.6,184.2 521.6,173.3 523.6,159.0 525.6,141.7 527.6,122.4 529.6,102.4 531.6,83.4 533.6,67.3 535.6,55.7 537.6,50.3 539.6,51.9 541.6,61.0 543.6,77.0 545.7,98.7 547.7,124.7 549.7,152.9 551.7,181.3 553.7,208.3 555.7,232.4 557.7,252.7 559.7,268.6 561.7,279.9 563.7,286.6 565.7,288.7 567.7,286.2 569.7,281.2 571.7,280.3 573.7,287.0 575.8,293.9 577.8,300.2 579.8,306.0 581.8,311.3 583.8,315.9 585.8,320.5 587.8,324.1 589.8,326.5 591.8,328.7 593.8,329.7 595.8,329.8 597.8,329.6 599.8,328.1 601.8,325.6 603.8,322.4 605.9,318.3 607.9,313.4 609.9,307.4 611.9,301.1 613.9,294.4 615.9,286.6 617.9,278.4 619.9,269.9 621.9,261.4 623.9,252.2 625.9,242.6 627.9,232.7 629.9,220.9 631.9,205.1 633.9,191.3 636.0,194.3 638.0,194.0 640.0,190.1 642.0,182.3 644.0,170.8 646.0,155.8 648.0,138.0 650.0,118.4" fill="none" stroke="#2a5caa" stroke-width="1.5"/>
<text x="350.0" y="372.0" font-size="11" font-family="sans-serif">t (s)</text>
<text x="8.0" y="190.0" font-size="11" font-family="sans-serif" transform="rotate(-90 8,190.0)">Thrust (N)</text>
</svg>
