<svg xmlns="http://www.w3.org/2000/svg" width="700" height="380">
<rect width="100%" height="100%" fill="#ffffff"/>
<text x="50" y="38" font-size="14" font-family="sans-serif">Lift vs time (amp=0.00, delta=0.320)</text>
<line x1="50.0" y1="330.0" x2="650.0" y2="330.0" stroke="#333" stroke-width="1"/>
<line x1="50.0" y1="50.0" x2="50.0" y2="330.0" stroke="#333" stroke-width="1"/>
<polyline points="50.0,187.8 51.3,167.8 52.5,147.6 53.8,126.9 55.0,106.1 56.3,86.2 57.5,68.9 58.8,56.2 60.0,50.0 61.3,51.9 62.5,62.7 63.8,82.2 65.0,109.1 66.3,141.4 67.5,176.8 68.8,212.8 70.0,247.2 71.3,278.7 72.5,306.4 73.8,330.0 75.1,281.3 76.3,285.9 77.6,290.3 78.8,294.5 80.1,298.6 81.3,302.4 82.6,306.0 83.8,309.4 85.1,312.7 86.3,315.7 87.6,318.5 88.8,321.0 90.1,323.3 91.3,325.2 92.6,326.8 93.8,328.0 95.1,328.9 96.3,329.3 97.6,329.3 98.9,328.8 100.1,327.9 101.4,326.6 102.6,324.8 103.9,322.6 105.1,320.0 106.4,317.1 107.6,313.8 108.9,310.3 110.1,306.5 111.4,302.5 112.6,298.4 113.9,294.1 115.1,289.7 116.4,285.2 117.6,280.6 118.9,276.0 120.1,271.3 121.4,266.5 122.7,261.7 123.9,256.8 125.2,187.8 126.4,167.8 127.7,147.6 128.9,126.9 130.2,106.1 131.4,86.2 132.7,68.9 133.9,56.2 135.2,50.0 136.4,51.9 137.7,62.7 138.9,82.2 140.2,109.1 141.4,141.4 142.7,176.8 143.9,212.8 145.2,247.2 146.5,278.7 147.7,306.4 149.0,330.0 150.2,281.3 151.5,285.9 152.7,290.3 154.0,294.5 155.2,298.6 156.5,302.4 157.7,306.0 159.0,309.4 160.2,312.7 161.5,315.7 162.7,318.5 164.0,321.0 165.2,323.3 166.5,325.2 167.7,326.8 169.0,328.0 170.3,328.9 171.5,329.3 172.8,329.3 174.0,328.8 175.3,327.9 176.5,326.6 177.8,324.8 179.0,322.6 180.3,320.0 181.5,317.1 182.8,313.8 184.0,310.3 185.3,306.5 186.5,302.5 187.8,298.4 189.0,294.1 190.3,289.7 191.5,285.2 192.8,280.6 194.1,276.0 195.3,271.3 196.6,266.5 197.8,261.7 199.1,256.8 200.3,187.8 201.6,167.8 202.8,147.6 204.1,126.9 205.3,106.1 206.6,86.2 207.8,68.9 209.1,56.2 210.3,50.0 211.6,51.9 212.8,62.7 214.1,82.2 215.3,109.1 216.6,141.4 217.8,176.8 219.1,212.8 220.4,247.2 221.6,278.7 222.9,306.4 224.1,330.0 225.4,281.3 226.6,285.9 227.9,290.3 229.1,294.5 230.4,298.6 231.6,302.4 232.9,306.0 234.1,309.4 235.4,312.7 236.6,315.7 237.9,318.5 239.1,321.0 240.4,323.3 241.6,325.2 242.9,326.8 244.2,328.0 245.4,328.9 246.7,329.3 247.9,329.3 249.2,328.8 250.4,327.9 251.7,326.6 252.9,324.8 254.2,322.6 255.4,320.0 256.7,317.1 257.9,313.8 259.2,310.3 260.4,306.5 261.7,302.5 262.9,298.4 264.2,294.1 265.4,289.7 266.7,285.2 268.0,280.6 269.2,276.0 270.5,271.3 271.7,266.5 273.0,261.7 274.2,256.8 275.5,187.8 276.7,167.8 278.0,147.6 279.2,126.9 280.5,106.1 281.7,86.2 283.0,68.9 284.2,56.2 285.5,50.0 286.7,51.9 288.0,62.7 289.2,82.2 290.5,109.1 291.8,141.4 293.0,176.8 294.3,212.8 295.5,247.2 296.8,278.7 298.0,306.4 299.3,330.0 300.5,281.3 301.8,285.9 303.0,290.3 304.3,294.5 305.5,298.6 306.8,302.4 308.0,306.0 309.3,309.4 310.5,312.7 311.8,315.7 313.0,318.5 314.3,321.0 315.6,323.3 316.8,325.2 318.1,326.8 319.3,328.0 320.6,328.9 321.8,329.3 323.1,329.3 324.3,328.8 325.6,327.9 326.8,326.6 328.1,324.8 329.3,322.6 330.6,320.0 331.8,317.1 333.1,313.8 334.3,310.3 335.6,306.5 336.8,302.5 338.1,298.4 339.4,294.1 340.6,289.7 341.9,285.2 343.1,280.6 344.4,276.0 345.6,271.3 346.9,266.5 348.1,261.7 349.4,256.8 350.6,187.8 351.9,167.8 353.1,147.6 354.4,126.9 355.6,106.1 356.9,86.2 358.1,68.9 359.4,56.2 360.6,50.0 361.9,51.9 363.2,62.7 364.4,82.2 365.7,109.1 366.9,141.4 368.2,176.8 369.4,212.8 370.7,247.2 371.9,278.7 373.2,306.4 374.4,330.0 375.7,281.3 376.9,285.9 378.2,290.3 379.4,294.5 380.7,298.6 381.9,302.4 383.2,306.0 384.4,309.4 385.7,312.7 387.0,315.7 388.2,318.5 389.5,321.0 390.7,323.3 392.0,325.2 393.2,326.8 394.5,328.0 395.7,328.9 397.0,329.3 398.2,329.3 399.5,328.8 400.7,327.9 402.0,326.6 403.2,324.8 404.5,322.6 405.7,320.0 407.0,317.1 408.2,313.8 409.5,310.3 410.8,306.5 412.0,302.5 413.3,298.4 414.5,294.1 415.8,289.7 417.0,285.2 418.3,280.6 419.5,276.0 420.8,271.3 422.0,266.5 423.3,261.7 424.5,256.8 425.8,187.8 427.0,167.8 428.3,147.6 429.5,126.9 430.8,106.1 432.0,86.2 433.3,68.9 434.6,56.2 435.8,50.0 437.1,51.9 438.3,62.7 439.6,82.2 440.8,109.1 442.1,141.4 443.3,176.8 444.6,212.8 445.8,247.2 447.1,278.7 448.3,306.4 449.6,330.0 450.8,281.3 452.1,285.9 453.3,290.3 454.6,294.5 455.8,298.6 457.1,302.4 458.4,306.0 459.6,309.4 460.9,312.7 462.1,315.7 463.4,318.5 464.6,321.0 465.9,323.3 467.1,325.2 468.4,326.8 469.6,328.0 470.9,328.9 472.1,329.3 473.4,329.3 474.6,328.8 475.9,327.9 477.1,326.6 478.4,324.8 479.6,322.6 480.9,320.0 482.2,317.1 483.4,313.8 484.7,310.3 485.9,306.5 487.2,302.5 488.4,298.4 489.7,294.1 490.9,289.7 492.2,285.2 493.4,280.6 494.7,276.0 495.9,271.3 497.2,266.5 498.4,261.7 499.7,256.8 500.9,187.8 502.2,167.8 503.4,147.6 504.7,126.9 505.9,106.1 507.2,86.2 508.5,68.9 509.7,56.2 511.0,50.0 512.2,51.9 513.5,62.7 514.7,82.2 516.0,109.1 517.2,141.4 518.5,176.8 519.7,212.8 521.0,247.2 522.2,278.7 523.5,306.4 524.7,330.0 526.0,281.3 527.2,285.9 528.5,290.3 529.7,294.5 531.0,298.6 532.3,302.4 533.5,306.0 534.8,309.4 536.0,312.7 537.3,315.7 538.5,318.5 539.8,321.0 541.0,323.3 542.3,325.2 543.5,326.8 544.8,328.0 546.0,328.9 547.3,329.3 548.5,329.3 549.8,328.8 551.0,327.9 552.3,326.6 553.5,324.8 554.8,322.6 556.1,320.0 557.3,317.1 558.6,313.8 559.8,310.3 561.1,306.5 562.3,302.5 563.6,298.4 564.8,294.1 566.1,289.7 567.3,285.2 568.6,280.6 569.8,276.0 571.1,271.3 572.3,266.5 573.6,261.7 574.8,256.8 576.1,187.8 577.3,167.8 578.6,147.6 579.9,126.9 581.1,106.1 582.4,86.2 583.6,68.9 584.9,56.2 586.1,50.0 587.4,51.9 588.6,62.7 589.9,82.2 591.1,109.1 592.4,141.4 593.6,176.8 594.9,212.8 596.1,247.2 597.4,278.7 598.6,306.4 599.9,330.0 601.1,281.3 602.4,285.9 603.7,290.3 604.9,294.5 606.2,298.6 607.4,302.4 608.7,306.0 609.9,309.4 611.2,312.7 612.4,315.7 613.7,318.5 614.9,321.0 616.2,323.3 617.4,325.2 618.7,326.8 619.9,328.0 621.2,328.9 622.4,329.3 623.7,329.3 624.9,328.8 626.2,327.9 627.5,326.6 628.7,324.8 630.0,322.6 631.2,320.0 632.5,317.1 633.7,313.8 635.0,310.3 636.2,306.5 637.5,302.5 638.7,298.4 640.0,294.1 641.2,289.7 642.5,285.2 643.7,280.6 645.0,276.0 646.2,271.3 647.5,266.5 648.7,261.7 650.0,256.8" fill="none" stroke="#2a5caa" stroke-width="1.5"/>
<text x="350.0" y="372.0" font-size="11" font-family="sans-serif">t (s)</text>
<text x="8.0" y="190.0" font-size="11" font-family="sans-serif" transform="rotate(-90 8,190.0)">Lift (N)</text>
</svg>
