<svg xmlns="http://www.w3.org/2000/svg" width="700" height="380">
<rect width="100%" height="100%" fill="#ffffff"/>
<text x="50" y="38" font-size="14" font-family="sans-serif">Lift vs time (amp=0.20, delta=0.420)</text>
<line x1="50.0" y1="330.0" x2="650.0" y2="330.0" stroke="#333" stroke-width="1"/>
<line x1="50.0" y1="50.0" x2="50.0" y2="330.0" stroke="#333" stroke-width="1"/>
<polyline points="50.0,328.1 52.5,322.1 55.0,312.4 57.5,298.8 60.0,282.0 62.6,263.1 65.1,243.0 67.6,222.7 70.1,202.6 72.6,183.1 75.1,164.7 77.6,148.6 80.1,133.2 82.6,118.1 85.1,103.7 87.7,90.2 90.2,78.2 92.7,72.8 95.2,89.7 97.7,90.7 100.2,87.5 102.7,82.1 105.2,76.4 107.7,70.5 110.3,65.3 112.8,60.8 115.3,57.2 117.8,53.8 120.3,52.0 122.8,50.5 125.3,50.0 127.8,50.6 130.3,52.2 132.8,54.9 135.4,58.7 137.9,63.5 140.4,69.4 142.9,76.3 145.4,84.3 147.9,93.1 150.4,102.2 152.9,112.7 155.4,123.3 157.9,135.1 160.5,146.9 163.0,158.4 165.5,170.3 168.0,181.9 170.5,192.6 173.0,201.7 175.5,210.9 178.0,230.2 180.5,248.8 183.1,266.8 185.6,283.6 188.1,298.2 190.6,309.8 193.1,317.3 195.6,322.8 198.1,327.3 200.6,329.8 203.1,328.8 205.6,324.3 208.2,315.5 210.7,302.8 213.2,286.8 215.7,268.4 218.2,248.6 220.7,228.2 223.2,208.0 225.7,188.4 228.2,169.5 230.8,152.5 233.3,137.4 235.8,122.1 238.3,107.5 240.8,93.7 243.3,81.3 245.8,71.9 248.3,86.4 250.8,91.3 253.3,88.0 255.9,83.4 258.4,77.5 260.9,72.3 263.4,66.8 265.9,62.2 268.4,58.4 270.9,54.6 273.4,52.6 275.9,50.8 278.5,50.0 281.0,50.3 283.5,51.6 286.0,54.0 288.5,57.5 291.0,62.1 293.5,67.7 296.0,74.4 298.5,82.0 301.0,90.6 303.6,99.4 306.1,109.8 308.6,120.8 311.1,131.9 313.6,143.5 316.1,155.5 318.6,167.3 321.1,178.8 323.6,189.8 326.2,199.2 328.7,205.6 331.2,225.0 333.7,243.8 336.2,261.9 338.7,279.1 341.2,294.6 343.7,307.1 346.2,315.4 348.7,321.6 351.3,326.7 353.8,329.6 356.3,329.5 358.8,325.9 361.3,318.2 363.8,306.7 366.3,291.4 368.8,273.6 371.3,254.0 373.8,233.8 376.4,213.4 378.9,193.8 381.4,174.5 383.9,156.9 386.4,141.8 388.9,126.2 391.4,111.5 393.9,97.3 396.4,84.6 399.0,73.8 401.5,82.1 404.0,91.0 406.5,89.4 409.0,84.6 411.5,79.5 414.0,74.1 416.5,68.5 419.0,63.6 421.5,58.7 424.1,55.5 426.6,52.5 429.1,51.2 431.6,50.1 434.1,50.1 436.6,51.2 439.1,53.3 441.6,56.5 444.1,60.7 446.7,66.1 449.2,72.5 451.7,79.8 454.2,88.2 456.7,97.5 459.2,106.9 461.7,117.8 464.2,128.6 466.7,140.1 469.2,152.0 471.8,163.7 474.3,175.8 476.8,186.6 479.3,196.8 481.8,205.2 484.3,219.7 486.8,238.7 489.3,257.1 491.8,274.6 494.4,290.6 496.9,304.1 499.4,313.4 501.9,320.2 504.4,325.3 506.9,329.1 509.4,330.0 511.9,327.5 514.4,320.7 516.9,310.2 519.5,295.9 522.0,278.6 524.5,259.5 527.0,239.3 529.5,218.9 532.0,199.0 534.5,179.6 537.0,161.5 539.5,146.2 542.1,130.4 544.6,115.4 547.1,101.1 549.6,87.9 552.1,76.4 554.6,76.0 557.1,90.8 559.6,90.0 562.1,86.0 564.6,80.7 567.2,75.1 569.7,70.1 572.2,65.1 574.7,60.0 577.2,56.5 579.7,53.2 582.2,51.7 584.7,50.3 587.2,50.0 589.7,50.8 592.3,52.6 594.8,55.5 597.3,59.5 599.8,64.5 602.3,70.6 604.8,77.7 607.3,85.8 609.8,94.9 612.3,104.0 614.9,114.7 617.4,125.4 619.9,136.7 622.4,148.6 624.9,160.8 627.4,172.2 629.9,183.9 632.4,194.2 634.9,203.0 637.4,214.5 640.0,233.7 642.5,252.2 645.0,270.0 647.5,286.4 650.0,300.6" fill="none" stroke="#2a5caa" stroke-width="1.5"/>
<text x="350.0" y="372.0" font-size="11" font-family="sans-serif">t (s)</text>
<text x="8.0" y="190.0" font-size="11" font-family="sans-serif" transform="rotate(-90 8,190.0)">Lift (N)</text>
</svg>
